<mxfile host="65bd71144e">
    <diagram id="C5RBs43oDa-KdzZeNtuy" name="Page-1">
        <mxGraphModel dx="1265" dy="444" grid="1" gridSize="10" guides="1" tooltips="1" connect="1" arrows="1" fold="1" page="1" pageScale="1" pageWidth="827" pageHeight="1169" math="0" shadow="0">
            <root>
                <mxCell id="WIyWlLk6GJQsqaUBKTNV-0"/>
                <mxCell id="WIyWlLk6GJQsqaUBKTNV-1" parent="WIyWlLk6GJQsqaUBKTNV-0"/>
                <mxCell id="kJD3y-_oCrTrb81wseK7-88" value="" style="edgeStyle=orthogonalEdgeStyle;rounded=0;orthogonalLoop=1;jettySize=auto;html=1;" parent="WIyWlLk6GJQsqaUBKTNV-1" source="WIyWlLk6GJQsqaUBKTNV-3" target="kJD3y-_oCrTrb81wseK7-0" edge="1">
                    <mxGeometry relative="1" as="geometry"/>
                </mxCell>
                <mxCell id="WIyWlLk6GJQsqaUBKTNV-3" value="Inicio" style="rounded=1;whiteSpace=wrap;html=1;fontSize=12;glass=0;strokeWidth=1;shadow=0;" parent="WIyWlLk6GJQsqaUBKTNV-1" vertex="1">
                    <mxGeometry x="92.5" width="120" height="40" as="geometry"/>
                </mxCell>
                <mxCell id="kJD3y-_oCrTrb81wseK7-87" value="" style="edgeStyle=orthogonalEdgeStyle;rounded=0;orthogonalLoop=1;jettySize=auto;html=1;" parent="WIyWlLk6GJQsqaUBKTNV-1" source="kJD3y-_oCrTrb81wseK7-0" target="kJD3y-_oCrTrb81wseK7-2" edge="1">
                    <mxGeometry relative="1" as="geometry"/>
                </mxCell>
                <mxCell id="kJD3y-_oCrTrb81wseK7-0" value="&lt;span style=&quot;font-family: &amp;#34;helvetica&amp;#34; ; font-size: 12px ; font-style: normal ; font-weight: 400 ; letter-spacing: normal ; text-align: center ; text-indent: 0px ; text-transform: none ; word-spacing: 0px ; display: inline ; float: none&quot;&gt;&lt;font color=&quot;#ffffff&quot;&gt;Escribir &quot;Tipo de carne: 1. Vacuno 2. Cordero&quot;&lt;/font&gt;&lt;/span&gt;" style="shape=parallelogram;perimeter=parallelogramPerimeter;whiteSpace=wrap;html=1;fixedSize=1;" parent="WIyWlLk6GJQsqaUBKTNV-1" vertex="1">
                    <mxGeometry x="72.5" y="70" width="160" height="60" as="geometry"/>
                </mxCell>
                <mxCell id="kJD3y-_oCrTrb81wseK7-85" value="" style="edgeStyle=orthogonalEdgeStyle;rounded=0;orthogonalLoop=1;jettySize=auto;html=1;" parent="WIyWlLk6GJQsqaUBKTNV-1" source="kJD3y-_oCrTrb81wseK7-9" target="kJD3y-_oCrTrb81wseK7-11" edge="1">
                    <mxGeometry relative="1" as="geometry"/>
                </mxCell>
                <mxCell id="kJD3y-_oCrTrb81wseK7-9" value="Escribir: &quot;Modo de cocción 1. Casi crudo 2. Al punto 3. Bien hecho&quot;" style="shape=parallelogram;perimeter=parallelogramPerimeter;whiteSpace=wrap;html=1;fixedSize=1;" parent="WIyWlLk6GJQsqaUBKTNV-1" vertex="1">
                    <mxGeometry x="62.5" y="280" width="180" height="70" as="geometry"/>
                </mxCell>
                <mxCell id="kJD3y-_oCrTrb81wseK7-89" value="" style="edgeStyle=orthogonalEdgeStyle;rounded=0;orthogonalLoop=1;jettySize=auto;html=1;" parent="WIyWlLk6GJQsqaUBKTNV-1" source="kJD3y-_oCrTrb81wseK7-11" target="kJD3y-_oCrTrb81wseK7-18" edge="1">
                    <mxGeometry relative="1" as="geometry"/>
                </mxCell>
                <mxCell id="kJD3y-_oCrTrb81wseK7-11" value="Poner el valor introducido en la variable modo" style="shape=parallelogram;perimeter=parallelogramPerimeter;whiteSpace=wrap;html=1;fixedSize=1;" parent="WIyWlLk6GJQsqaUBKTNV-1" vertex="1">
                    <mxGeometry x="87.5" y="390" width="130" height="50" as="geometry"/>
                </mxCell>
                <mxCell id="kJD3y-_oCrTrb81wseK7-86" value="" style="edgeStyle=orthogonalEdgeStyle;rounded=0;orthogonalLoop=1;jettySize=auto;html=1;" parent="WIyWlLk6GJQsqaUBKTNV-1" source="kJD3y-_oCrTrb81wseK7-2" target="kJD3y-_oCrTrb81wseK7-9" edge="1">
                    <mxGeometry relative="1" as="geometry"/>
                </mxCell>
                <mxCell id="kJD3y-_oCrTrb81wseK7-2" value="Poner el valor introducido en la variable tipo" style="shape=parallelogram;perimeter=parallelogramPerimeter;whiteSpace=wrap;html=1;fixedSize=1;" parent="WIyWlLk6GJQsqaUBKTNV-1" vertex="1">
                    <mxGeometry x="70" y="170" width="165" height="70" as="geometry"/>
                </mxCell>
                <mxCell id="kJD3y-_oCrTrb81wseK7-97" value="" style="edgeStyle=orthogonalEdgeStyle;rounded=0;orthogonalLoop=1;jettySize=auto;html=1;" parent="WIyWlLk6GJQsqaUBKTNV-1" source="kJD3y-_oCrTrb81wseK7-18" target="kJD3y-_oCrTrb81wseK7-20" edge="1">
                    <mxGeometry relative="1" as="geometry"/>
                </mxCell>
                <mxCell id="kJD3y-_oCrTrb81wseK7-18" value="Escribir: &quot;Introduzca el peso en gramos&quot;" style="shape=parallelogram;perimeter=parallelogramPerimeter;whiteSpace=wrap;html=1;fixedSize=1;" parent="WIyWlLk6GJQsqaUBKTNV-1" vertex="1">
                    <mxGeometry x="75" y="480" width="155" height="70" as="geometry"/>
                </mxCell>
                <mxCell id="kJD3y-_oCrTrb81wseK7-91" value="" style="edgeStyle=orthogonalEdgeStyle;rounded=0;orthogonalLoop=1;jettySize=auto;html=1;" parent="WIyWlLk6GJQsqaUBKTNV-1" source="kJD3y-_oCrTrb81wseK7-20" target="kJD3y-_oCrTrb81wseK7-22" edge="1">
                    <mxGeometry relative="1" as="geometry"/>
                </mxCell>
                <mxCell id="kJD3y-_oCrTrb81wseK7-20" value="Poner el valor introducido en la variable peso" style="shape=parallelogram;perimeter=parallelogramPerimeter;whiteSpace=wrap;html=1;fixedSize=1;" parent="WIyWlLk6GJQsqaUBKTNV-1" vertex="1">
                    <mxGeometry x="85" y="585" width="135" height="70" as="geometry"/>
                </mxCell>
                <mxCell id="kJD3y-_oCrTrb81wseK7-92" value="" style="edgeStyle=orthogonalEdgeStyle;rounded=0;orthogonalLoop=1;jettySize=auto;html=1;exitX=0.5;exitY=1;exitDx=0;exitDy=0;" parent="WIyWlLk6GJQsqaUBKTNV-1" source="kJD3y-_oCrTrb81wseK7-22" target="kJD3y-_oCrTrb81wseK7-35" edge="1">
                    <mxGeometry relative="1" as="geometry">
                        <mxPoint x="290" y="840" as="sourcePoint"/>
                    </mxGeometry>
                </mxCell>
                <mxCell id="kJD3y-_oCrTrb81wseK7-22" value="¿Tipo es igual&amp;nbsp; a vacuno?" style="rhombus;whiteSpace=wrap;html=1;" parent="WIyWlLk6GJQsqaUBKTNV-1" vertex="1">
                    <mxGeometry x="102.5" y="700" width="100" height="100" as="geometry"/>
                </mxCell>
                <mxCell id="kJD3y-_oCrTrb81wseK7-31" value="" style="edgeStyle=orthogonalEdgeStyle;rounded=0;orthogonalLoop=1;jettySize=auto;html=1;startArrow=none;" parent="WIyWlLk6GJQsqaUBKTNV-1" source="kJD3y-_oCrTrb81wseK7-29" target="kJD3y-_oCrTrb81wseK7-30" edge="1">
                    <mxGeometry relative="1" as="geometry"/>
                </mxCell>
                <mxCell id="kJD3y-_oCrTrb81wseK7-101" value="" style="edgeStyle=orthogonalEdgeStyle;rounded=0;orthogonalLoop=1;jettySize=auto;html=1;entryX=0.5;entryY=0;entryDx=0;entryDy=0;" parent="WIyWlLk6GJQsqaUBKTNV-1" source="kJD3y-_oCrTrb81wseK7-24" target="kJD3y-_oCrTrb81wseK7-67" edge="1">
                    <mxGeometry relative="1" as="geometry">
                        <mxPoint x="440" y="840" as="targetPoint"/>
                        <Array as="points">
                            <mxPoint x="570" y="870"/>
                            <mxPoint x="570" y="870"/>
                        </Array>
                    </mxGeometry>
                </mxCell>
                <mxCell id="kJD3y-_oCrTrb81wseK7-24" value="¿Tipo es igual a cordero?" style="rhombus;whiteSpace=wrap;html=1;" parent="WIyWlLk6GJQsqaUBKTNV-1" vertex="1">
                    <mxGeometry x="520" y="700" width="100" height="100" as="geometry"/>
                </mxCell>
                <mxCell id="kJD3y-_oCrTrb81wseK7-28" value="Falso" style="text;strokeColor=none;fillColor=none;align=left;verticalAlign=middle;spacingLeft=4;spacingRight=4;overflow=hidden;points=[[0,0.5],[1,0.5]];portConstraint=eastwest;rotatable=0;" parent="WIyWlLk6GJQsqaUBKTNV-1" vertex="1">
                    <mxGeometry x="202.5" y="720" width="55" height="30" as="geometry"/>
                </mxCell>
                <mxCell id="kJD3y-_oCrTrb81wseK7-119" value="" style="edgeStyle=elbowEdgeStyle;rounded=0;orthogonalLoop=1;jettySize=auto;html=1;" parent="WIyWlLk6GJQsqaUBKTNV-1" source="kJD3y-_oCrTrb81wseK7-30" target="kJD3y-_oCrTrb81wseK7-71" edge="1">
                    <mxGeometry relative="1" as="geometry"/>
                </mxCell>
                <mxCell id="kJD3y-_oCrTrb81wseK7-30" value="Escribir &quot;El tipo de carne introducido no es correcto&quot;" style="shape=parallelogram;perimeter=parallelogramPerimeter;whiteSpace=wrap;html=1;fixedSize=1;" parent="WIyWlLk6GJQsqaUBKTNV-1" vertex="1">
                    <mxGeometry x="850" y="720" width="170" height="60" as="geometry"/>
                </mxCell>
                <mxCell id="kJD3y-_oCrTrb81wseK7-32" value="Falso" style="text;html=1;strokeColor=none;fillColor=none;align=center;verticalAlign=middle;whiteSpace=wrap;rounded=0;" parent="WIyWlLk6GJQsqaUBKTNV-1" vertex="1">
                    <mxGeometry x="620" y="720" width="60" height="30" as="geometry"/>
                </mxCell>
                <mxCell id="kJD3y-_oCrTrb81wseK7-113" value="" style="edgeStyle=elbowEdgeStyle;rounded=0;orthogonalLoop=1;jettySize=auto;html=1;exitX=0.5;exitY=1;exitDx=0;exitDy=0;entryX=0;entryY=0.5;entryDx=0;entryDy=0;" parent="WIyWlLk6GJQsqaUBKTNV-1" source="kJD3y-_oCrTrb81wseK7-34" target="kJD3y-_oCrTrb81wseK7-109" edge="1">
                    <mxGeometry relative="1" as="geometry">
                        <mxPoint x="15" y="980" as="targetPoint"/>
                        <Array as="points">
                            <mxPoint x="15" y="980"/>
                        </Array>
                    </mxGeometry>
                </mxCell>
                <mxCell id="kJD3y-_oCrTrb81wseK7-34" value="Multiplicar peso por por 10 por 60 y dividirlo entre 500" style="rounded=0;whiteSpace=wrap;html=1;" parent="WIyWlLk6GJQsqaUBKTNV-1" vertex="1">
                    <mxGeometry x="-45" y="880" width="120" height="70" as="geometry"/>
                </mxCell>
                <mxCell id="kJD3y-_oCrTrb81wseK7-115" value="" style="edgeStyle=elbowEdgeStyle;rounded=0;orthogonalLoop=1;jettySize=auto;html=1;" parent="WIyWlLk6GJQsqaUBKTNV-1" source="kJD3y-_oCrTrb81wseK7-35" target="kJD3y-_oCrTrb81wseK7-109" edge="1">
                    <mxGeometry relative="1" as="geometry"/>
                </mxCell>
                <mxCell id="kJD3y-_oCrTrb81wseK7-35" value="Multiplicar peso por 17 por 60 y dividirlo entre 500" style="rounded=0;whiteSpace=wrap;html=1;" parent="WIyWlLk6GJQsqaUBKTNV-1" vertex="1">
                    <mxGeometry x="90" y="880" width="125" height="70" as="geometry"/>
                </mxCell>
                <mxCell id="kJD3y-_oCrTrb81wseK7-117" value="" style="edgeStyle=elbowEdgeStyle;rounded=0;orthogonalLoop=1;jettySize=auto;html=1;exitX=0.5;exitY=1;exitDx=0;exitDy=0;" parent="WIyWlLk6GJQsqaUBKTNV-1" source="kJD3y-_oCrTrb81wseK7-36" target="kJD3y-_oCrTrb81wseK7-109" edge="1">
                    <mxGeometry relative="1" as="geometry">
                        <mxPoint x="289" y="980" as="targetPoint"/>
                        <Array as="points">
                            <mxPoint x="280" y="1010"/>
                        </Array>
                    </mxGeometry>
                </mxCell>
                <mxCell id="kJD3y-_oCrTrb81wseK7-36" value="&lt;span&gt;Multiplicar peso por 25 por 60 y dividirlo entre 500&lt;/span&gt;" style="rounded=0;whiteSpace=wrap;html=1;" parent="WIyWlLk6GJQsqaUBKTNV-1" vertex="1">
                    <mxGeometry x="227.5" y="880" width="122.5" height="70" as="geometry"/>
                </mxCell>
                <mxCell id="kJD3y-_oCrTrb81wseK7-29" value="" style="ellipse;whiteSpace=wrap;html=1;aspect=fixed;" parent="WIyWlLk6GJQsqaUBKTNV-1" vertex="1">
                    <mxGeometry x="620" y="742.25" width="15.5" height="15.5" as="geometry"/>
                </mxCell>
                <mxCell id="kJD3y-_oCrTrb81wseK7-123" value="" style="edgeStyle=elbowEdgeStyle;rounded=0;orthogonalLoop=1;jettySize=auto;html=1;entryX=0;entryY=0.5;entryDx=0;entryDy=0;exitX=0.5;exitY=1;exitDx=0;exitDy=0;" parent="WIyWlLk6GJQsqaUBKTNV-1" source="kJD3y-_oCrTrb81wseK7-66" target="kJD3y-_oCrTrb81wseK7-121" edge="1">
                    <mxGeometry relative="1" as="geometry">
                        <mxPoint x="445" y="1010" as="targetPoint"/>
                        <Array as="points">
                            <mxPoint x="445" y="1010"/>
                            <mxPoint x="445" y="990"/>
                        </Array>
                    </mxGeometry>
                </mxCell>
                <mxCell id="kJD3y-_oCrTrb81wseK7-66" value="Multiplicar peso por por 15 por 60 y dividirlo entre 400" style="rounded=0;whiteSpace=wrap;html=1;" parent="WIyWlLk6GJQsqaUBKTNV-1" vertex="1">
                    <mxGeometry x="390" y="880" width="110" height="70" as="geometry"/>
                </mxCell>
                <mxCell id="kJD3y-_oCrTrb81wseK7-124" value="" style="edgeStyle=elbowEdgeStyle;rounded=0;orthogonalLoop=1;jettySize=auto;html=1;" parent="WIyWlLk6GJQsqaUBKTNV-1" source="kJD3y-_oCrTrb81wseK7-67" target="kJD3y-_oCrTrb81wseK7-121" edge="1">
                    <mxGeometry relative="1" as="geometry"/>
                </mxCell>
                <mxCell id="kJD3y-_oCrTrb81wseK7-67" value="Multiplicar peso por 25 por 60 y dividirlo entre 400" style="rounded=0;whiteSpace=wrap;html=1;" parent="WIyWlLk6GJQsqaUBKTNV-1" vertex="1">
                    <mxGeometry x="515" y="880" width="110" height="70" as="geometry"/>
                </mxCell>
                <mxCell id="kJD3y-_oCrTrb81wseK7-125" value="" style="edgeStyle=elbowEdgeStyle;rounded=0;orthogonalLoop=1;jettySize=auto;html=1;entryX=1;entryY=0.5;entryDx=0;entryDy=0;exitX=0.5;exitY=1;exitDx=0;exitDy=0;" parent="WIyWlLk6GJQsqaUBKTNV-1" source="kJD3y-_oCrTrb81wseK7-68" target="kJD3y-_oCrTrb81wseK7-121" edge="1">
                    <mxGeometry relative="1" as="geometry">
                        <mxPoint x="640" y="1040" as="targetPoint"/>
                        <Array as="points">
                            <mxPoint x="700" y="980"/>
                        </Array>
                    </mxGeometry>
                </mxCell>
                <mxCell id="kJD3y-_oCrTrb81wseK7-68" value="&lt;span&gt;Multiplicar peso por 40 por 60 y dividirlo entre 400&lt;/span&gt;" style="rounded=0;whiteSpace=wrap;html=1;" parent="WIyWlLk6GJQsqaUBKTNV-1" vertex="1">
                    <mxGeometry x="640" y="880" width="110" height="70" as="geometry"/>
                </mxCell>
                <mxCell id="kJD3y-_oCrTrb81wseK7-71" value="&lt;span&gt;Fin&lt;/span&gt;" style="rounded=1;whiteSpace=wrap;html=1;" parent="WIyWlLk6GJQsqaUBKTNV-1" vertex="1">
                    <mxGeometry x="875" y="885" width="120" height="60" as="geometry"/>
                </mxCell>
                <mxCell id="kJD3y-_oCrTrb81wseK7-95" value="" style="endArrow=classic;html=1;rounded=0;entryX=0.5;entryY=0;entryDx=0;entryDy=0;" parent="WIyWlLk6GJQsqaUBKTNV-1" target="kJD3y-_oCrTrb81wseK7-36" edge="1">
                    <mxGeometry width="50" height="50" relative="1" as="geometry">
                        <mxPoint x="150" y="840" as="sourcePoint"/>
                        <mxPoint x="410" y="730" as="targetPoint"/>
                        <Array as="points">
                            <mxPoint x="289" y="840"/>
                        </Array>
                    </mxGeometry>
                </mxCell>
                <mxCell id="kJD3y-_oCrTrb81wseK7-96" value="" style="endArrow=classic;html=1;rounded=0;entryX=0.5;entryY=0;entryDx=0;entryDy=0;" parent="WIyWlLk6GJQsqaUBKTNV-1" target="kJD3y-_oCrTrb81wseK7-34" edge="1">
                    <mxGeometry width="50" height="50" relative="1" as="geometry">
                        <mxPoint x="150" y="840" as="sourcePoint"/>
                        <mxPoint y="640" as="targetPoint"/>
                        <Array as="points">
                            <mxPoint x="15" y="840"/>
                        </Array>
                    </mxGeometry>
                </mxCell>
                <mxCell id="kJD3y-_oCrTrb81wseK7-100" value="" style="edgeStyle=orthogonalEdgeStyle;rounded=0;orthogonalLoop=1;jettySize=auto;html=1;entryX=0;entryY=0.5;entryDx=0;entryDy=0;" parent="WIyWlLk6GJQsqaUBKTNV-1" source="kJD3y-_oCrTrb81wseK7-27" target="kJD3y-_oCrTrb81wseK7-24" edge="1">
                    <mxGeometry relative="1" as="geometry"/>
                </mxCell>
                <mxCell id="kJD3y-_oCrTrb81wseK7-27" value="" style="ellipse;whiteSpace=wrap;html=1;aspect=fixed;" parent="WIyWlLk6GJQsqaUBKTNV-1" vertex="1">
                    <mxGeometry x="202" y="742.25" width="15.5" height="15.5" as="geometry"/>
                </mxCell>
                <mxCell id="kJD3y-_oCrTrb81wseK7-102" value="" style="endArrow=classic;html=1;rounded=0;entryX=0.5;entryY=0;entryDx=0;entryDy=0;" parent="WIyWlLk6GJQsqaUBKTNV-1" target="kJD3y-_oCrTrb81wseK7-66" edge="1">
                    <mxGeometry width="50" height="50" relative="1" as="geometry">
                        <mxPoint x="570" y="840" as="sourcePoint"/>
                        <mxPoint x="410" y="630" as="targetPoint"/>
                        <Array as="points">
                            <mxPoint x="445" y="840"/>
                        </Array>
                    </mxGeometry>
                </mxCell>
                <mxCell id="kJD3y-_oCrTrb81wseK7-103" value="" style="endArrow=classic;html=1;rounded=0;entryX=0.5;entryY=0;entryDx=0;entryDy=0;" parent="WIyWlLk6GJQsqaUBKTNV-1" target="kJD3y-_oCrTrb81wseK7-68" edge="1">
                    <mxGeometry width="50" height="50" relative="1" as="geometry">
                        <mxPoint x="570" y="840" as="sourcePoint"/>
                        <mxPoint x="410" y="630" as="targetPoint"/>
                        <Array as="points">
                            <mxPoint x="695" y="840"/>
                        </Array>
                    </mxGeometry>
                </mxCell>
                <mxCell id="kJD3y-_oCrTrb81wseK7-104" value="Case crudo" style="text;strokeColor=none;fillColor=none;align=left;verticalAlign=middle;spacingLeft=4;spacingRight=4;overflow=hidden;points=[[0,0.5],[1,0.5]];portConstraint=eastwest;rotatable=0;" parent="WIyWlLk6GJQsqaUBKTNV-1" vertex="1">
                    <mxGeometry x="12.5" y="840" width="80" height="30" as="geometry"/>
                </mxCell>
                <mxCell id="kJD3y-_oCrTrb81wseK7-105" value="Case punto" style="text;strokeColor=none;fillColor=none;align=left;verticalAlign=middle;spacingLeft=4;spacingRight=4;overflow=hidden;points=[[0,0.5],[1,0.5]];portConstraint=eastwest;rotatable=0;" parent="WIyWlLk6GJQsqaUBKTNV-1" vertex="1">
                    <mxGeometry x="155" y="840" width="80" height="30" as="geometry"/>
                </mxCell>
                <mxCell id="kJD3y-_oCrTrb81wseK7-106" value="Case hecho" style="text;strokeColor=none;fillColor=none;align=left;verticalAlign=middle;spacingLeft=4;spacingRight=4;overflow=hidden;points=[[0,0.5],[1,0.5]];portConstraint=eastwest;rotatable=0;" parent="WIyWlLk6GJQsqaUBKTNV-1" vertex="1">
                    <mxGeometry x="290" y="840" width="80" height="30" as="geometry"/>
                </mxCell>
                <mxCell id="kJD3y-_oCrTrb81wseK7-116" value="" style="edgeStyle=elbowEdgeStyle;rounded=0;orthogonalLoop=1;jettySize=auto;html=1;" parent="WIyWlLk6GJQsqaUBKTNV-1" source="kJD3y-_oCrTrb81wseK7-109" target="kJD3y-_oCrTrb81wseK7-110" edge="1">
                    <mxGeometry relative="1" as="geometry"/>
                </mxCell>
                <mxCell id="kJD3y-_oCrTrb81wseK7-109" value="&lt;font color=&quot;#ffffff&quot;&gt;&lt;br&gt;&lt;span style=&quot;font-family: &amp;#34;helvetica&amp;#34; ; font-size: 12px ; font-style: normal ; font-weight: 400 ; letter-spacing: normal ; text-align: center ; text-indent: 0px ; text-transform: none ; word-spacing: 0px ; display: inline ; float: none&quot;&gt;Escribir &quot;El tiempo de cocción es &quot; y el resultado&lt;/span&gt;&lt;br&gt;&lt;/font&gt;" style="shape=parallelogram;perimeter=parallelogramPerimeter;whiteSpace=wrap;html=1;fixedSize=1;" parent="WIyWlLk6GJQsqaUBKTNV-1" vertex="1">
                    <mxGeometry x="95" y="980" width="155" height="60" as="geometry"/>
                </mxCell>
                <mxCell id="kJD3y-_oCrTrb81wseK7-110" value="&lt;font color=&quot;#ffffff&quot;&gt;Fin&lt;br&gt;&lt;/font&gt;" style="rounded=1;whiteSpace=wrap;html=1;" parent="WIyWlLk6GJQsqaUBKTNV-1" vertex="1">
                    <mxGeometry x="92.5" y="1080" width="120" height="60" as="geometry"/>
                </mxCell>
                <mxCell id="kJD3y-_oCrTrb81wseK7-130" value="" style="edgeStyle=elbowEdgeStyle;rounded=0;orthogonalLoop=1;jettySize=auto;html=1;" parent="WIyWlLk6GJQsqaUBKTNV-1" source="kJD3y-_oCrTrb81wseK7-121" target="kJD3y-_oCrTrb81wseK7-128" edge="1">
                    <mxGeometry relative="1" as="geometry"/>
                </mxCell>
                <mxCell id="kJD3y-_oCrTrb81wseK7-121" value="&lt;font color=&quot;#ffffff&quot;&gt;&lt;br&gt;&lt;span style=&quot;font-family: &amp;#34;helvetica&amp;#34; ; font-size: 12px ; font-style: normal ; font-weight: 400 ; letter-spacing: normal ; text-align: center ; text-indent: 0px ; text-transform: none ; word-spacing: 0px ; display: inline ; float: none&quot;&gt;Escribir &quot;El tiempo de cocción es &quot; y el resultado&lt;/span&gt;&lt;br&gt;&lt;/font&gt;" style="shape=parallelogram;perimeter=parallelogramPerimeter;whiteSpace=wrap;html=1;fixedSize=1;" parent="WIyWlLk6GJQsqaUBKTNV-1" vertex="1">
                    <mxGeometry x="505" y="980" width="155" height="60" as="geometry"/>
                </mxCell>
                <mxCell id="kJD3y-_oCrTrb81wseK7-128" value="&lt;font color=&quot;#ffffff&quot;&gt;Fin&lt;br&gt;&lt;/font&gt;" style="rounded=1;whiteSpace=wrap;html=1;" parent="WIyWlLk6GJQsqaUBKTNV-1" vertex="1">
                    <mxGeometry x="510" y="1080" width="120" height="60" as="geometry"/>
                </mxCell>
                <mxCell id="lE8H2aPfAQ1n_LlINeU5-0" value="Case crudo" style="text;strokeColor=none;fillColor=none;align=left;verticalAlign=middle;spacingLeft=4;spacingRight=4;overflow=hidden;points=[[0,0.5],[1,0.5]];portConstraint=eastwest;rotatable=0;" parent="WIyWlLk6GJQsqaUBKTNV-1" vertex="1">
                    <mxGeometry x="440" y="840" width="80" height="30" as="geometry"/>
                </mxCell>
                <mxCell id="lE8H2aPfAQ1n_LlINeU5-1" value="Case punto" style="text;strokeColor=none;fillColor=none;align=left;verticalAlign=middle;spacingLeft=4;spacingRight=4;overflow=hidden;points=[[0,0.5],[1,0.5]];portConstraint=eastwest;rotatable=0;" parent="WIyWlLk6GJQsqaUBKTNV-1" vertex="1">
                    <mxGeometry x="570" y="840" width="80" height="30" as="geometry"/>
                </mxCell>
                <mxCell id="lE8H2aPfAQ1n_LlINeU5-2" value="Case hecho" style="text;strokeColor=none;fillColor=none;align=left;verticalAlign=middle;spacingLeft=4;spacingRight=4;overflow=hidden;points=[[0,0.5],[1,0.5]];portConstraint=eastwest;rotatable=0;" parent="WIyWlLk6GJQsqaUBKTNV-1" vertex="1">
                    <mxGeometry x="700" y="840" width="80" height="30" as="geometry"/>
                </mxCell>
            </root>
        </mxGraphModel>
    </diagram>
</mxfile>